<svg width="112" height="112" viewBox="0 0 112 112" fill="none" xmlns="http://www.w3.org/2000/svg">
  <defs>
    <linearGradient id="boxFront" x1="18" y1="55" x2="18" y2="96" gradientUnits="userSpaceOnUse">
      <stop stop-color="#39E8E3"/>
      <stop offset="1" stop-color="#28C9CE"/>
    </linearGradient>
    <linearGradient id="boxTop" x1="56" y1="48" x2="56" y2="62" gradientUnits="userSpaceOnUse">
      <stop stop-color="#0A8694"/>
      <stop offset="1" stop-color="#147A86"/>
    </linearGradient>
  </defs>

  <path d="M18 56H74V96H18V56Z" fill="url(#boxFront)"/>
  <path d="M18 49H74V62H18V49Z" fill="url(#boxTop)"/>
  <path d="M18 49H74V96H18V49Z" stroke="#0F7884" stroke-width="4.8"/>
  <path d="M24 67H45" stroke="#F7FFF9" stroke-width="5.8" stroke-linecap="round"/>
  <path d="M24 76H39" stroke="#F7FFF9" stroke-width="5.8" stroke-linecap="round"/>
  <path d="M19 58H74" stroke="#0A6670" stroke-width="5.4"/>

  <path d="M22 41L50 12L79 40L51 69L22 41Z" fill="#FFF9EF" stroke="#0F7884" stroke-width="4.8"/>
  <path d="M29 34L56 61" stroke="#0F7884" stroke-width="4.3" stroke-linecap="round"/>
  <path d="M38 24L66 52" stroke="#0F7884" stroke-width="4.3" stroke-linecap="round"/>
  <path d="M34 36L60 62" stroke="#0F7884" stroke-width="2.8" stroke-linecap="round" opacity="0.42"/>

  <path d="M62 24C68.5 25.1 73.6 30.2 74.7 36.7" stroke="#18C9CB" stroke-width="5" stroke-linecap="round"/>
  <path d="M70 16C78.5 17.4 85.2 24.1 86.6 32.6" stroke="#18C9CB" stroke-width="5" stroke-linecap="round"/>
  <path d="M78 8C88.3 9.7 96.3 17.7 98 28" stroke="#18C9CB" stroke-width="5" stroke-linecap="round"/>

  <path d="M71 45H86" stroke="#0F7884" stroke-width="4.8" stroke-linecap="round"/>
  <path d="M66 51H81" stroke="#0F7884" stroke-width="4.8" stroke-linecap="round"/>
</svg>
